PathFileType	4	(X/Y/Z)	output.trc
DataRate	CameraRate	NumFrames	NumMarkers	Units	OrigDataRate	OrigDataStartFrame	OrigNumFrames
100	100	12	23	m	100	3853	6164
Frame#	Time	C7			T8			EL			EM			US			RS			AA			Fore_Clus_1			Fore_Clus_2			Fore_Clus_3			Fore_Clus_4			Hum_Clus_1			Hum_Clus_2			Hum_Clus_3			Hum_Clus_4			Thor_Clus_1			Thor_Clus_2			Thor_Clus_3			Thor_Clus_4			IJ			PX			GH			Thor_Clus_5		
		X1	Y1	Z1	X2	Y2	Z2	X3	Y3	Z3	X4	Y4	Z4	X5	Y5	Z5	X6	Y6	Z6	X7	Y7	Z7	X8	Y8	Z8	X9	Y9	Z9	X10	Y10	Z10	X11	Y11	Z11	X12	Y12	Z12	X13	Y13	Z13	X14	Y14	Z14	X15	Y15	Z15	X16	Y16	Z16	X17	Y17	Z17	X18	Y18	Z18	X19	Y19	Z19	X20	Y20	Z20	X21	Y21	Z21	X22	Y22	Z22	X23	Y23	Z23
3852	38.520000	-0.075023	1.553766	-0.063088	-0.086044	1.317088	-0.149648	-0.304680	1.149530	0.073966	-0.253106	1.131831	0.032422	-0.125584	1.139888	0.276627	-0.102845	1.195040	0.261644	-0.243799	1.471504	0.032944	-0.182848	1.149020	0.255431	-0.146315	1.156886	0.295463	-0.143505	1.183742	0.287150	-0.177854	1.191776	0.241491	-0.274767	1.259164	0.127918	-0.313651	1.264206	0.081908	-0.311152	1.327095	0.072539	-0.266590	1.330995	0.110789	0.040325	1.453000	0.064259	-0.000936	1.397329	0.113291	0.000416	1.447790	0.084948	0.056213	1.405171	0.083971	-0.012343	1.464930	0.026882	0.032375	1.261963	0.068309	-0.211484	1.435933	0.031165	-0.008116	1.418536	0.104100
3853	38.530000	-0.075240	1.553676	-0.063149	-0.086308	1.316950	-0.149571	-0.304262	1.149305	0.074607	-0.253393	1.131788	0.032127	-0.119680	1.137969	0.272761	-0.097205	1.193159	0.257522	-0.243856	1.471411	0.033161	-0.177329	1.147316	0.253214	-0.139808	1.154830	0.292270	-0.137917	1.181754	0.284694	-0.172688	1.190300	0.239645	-0.273493	1.258721	0.128487	-0.313112	1.263983	0.083087	-0.310700	1.326936	0.074001	-0.265537	1.330653	0.111643	0.040313	1.453019	0.064060	-0.000881	1.397394	0.113198	0.000429	1.447835	0.084831	0.056218	1.405216	0.083784	-0.012407	1.464906	0.026779	0.032432	1.261974	0.068249	-0.211685	1.435880	0.031618	-0.008077	1.418594	0.104018
3854	38.540000	-0.075444	1.553601	-0.063173	-0.086549	1.316844	-0.149507	-0.303785	1.149015	0.075094	-0.253571	1.131708	0.031758	-0.114196	1.136021	0.268938	-0.091957	1.191248	0.253492	-0.243894	1.471305	0.033402	-0.172279	1.145588	0.250808	-0.133680	1.152722	0.288996	-0.131865	1.179719	0.281684	-0.167668	1.188560	0.237318	-0.272307	1.258230	0.128964	-0.312514	1.263711	0.084075	-0.310214	1.326715	0.075303	-0.264612	1.330271	0.112368	0.040288	1.453083	0.063960	-0.000799	1.397453	0.113124	0.000469	1.447868	0.084720	0.056235	1.405233	0.083610	-0.012452	1.464881	0.026694	0.032520	1.261978	0.068161	-0.211871	1.435802	0.032089	-0.007953	1.418562	0.103962
3855	38.550000	-0.075643	1.553532	-0.063162	-0.086779	1.316758	-0.149445	-0.303259	1.148664	0.075426	-0.253645	1.131590	0.031314	-0.109134	1.134052	0.265191	-0.087092	1.189312	0.249578	-0.243917	1.471182	0.033672	-0.167326	1.143791	0.248365	-0.127931	1.150570	0.285766	-0.126276	1.177616	0.278599	-0.163108	1.186826	0.235338	-0.271136	1.257733	0.129391	-0.312157	1.263361	0.085443	-0.309788	1.326420	0.076532	-0.263708	1.329856	0.113012	0.040208	1.453341	0.064137	-0.000639	1.397582	0.113126	0.000537	1.447817	0.084553	0.056266	1.405230	0.083455	-0.012482	1.464851	0.026625	0.032633	1.261973	0.068056	-0.212043	1.435694	0.032564	-0.007872	1.418585	0.103879
3856	38.560000	-0.075829	1.553480	-0.063112	-0.086993	1.316707	-0.149395	-0.302681	1.148253	0.075593	-0.253605	1.131438	0.030785	-0.104485	1.132080	0.261557	-0.082610	1.187372	0.245824	-0.243924	1.471052	0.033967	-0.162872	1.142021	0.245905	-0.122635	1.148326	0.282546	-0.121028	1.175443	0.275436	-0.158761	1.185061	0.233191	-0.270035	1.257173	0.129707	-0.311902	1.262843	0.086764	-0.309327	1.326124	0.077655	-0.262865	1.329391	0.113653	0.040247	1.453287	0.063947	-0.000542	1.397554	0.113068	0.000597	1.447709	0.084373	0.056345	1.405230	0.083236	-0.012497	1.464820	0.026574	0.032765	1.261958	0.067924	-0.212201	1.435563	0.033047	-0.007783	1.418575	0.103815
3857	38.570000	-0.076001	1.553448	-0.063023	-0.087193	1.316696	-0.149360	-0.302053	1.147788	0.075593	-0.253450	1.131257	0.030167	-0.100242	1.130121	0.258068	-0.078505	1.185446	0.242261	-0.243915	1.470919	0.034281	-0.158738	1.140197	0.243519	-0.117841	1.146256	0.279426	-0.116313	1.173385	0.272472	-0.154752	1.183276	0.231068	-0.269000	1.256589	0.129932	-0.311270	1.262414	0.087322	-0.308902	1.325730	0.078668	-0.262101	1.328898	0.114173	0.040298	1.453277	0.063845	-0.000415	1.397519	0.113003	0.000661	1.447710	0.084306	0.056439	1.405194	0.083039	-0.012498	1.464787	0.026542	0.032912	1.261932	0.067764	-0.212345	1.435413	0.033537	-0.007694	1.418554	0.103779
3858	38.580000	-0.076164	1.553427	-0.062900	-0.087386	1.316712	-0.149333	-0.301382	1.147276	0.075436	-0.253189	1.131050	0.029466	-0.096398	1.128185	0.254748	-0.074765	1.183542	0.238908	-0.243897	1.470781	0.034618	-0.155038	1.138509	0.241153	-0.113577	1.144242	0.276419	-0.112182	1.171420	0.269666	-0.151120	1.181619	0.228870	-0.267979	1.255875	0.130110	-0.310693	1.261857	0.087950	-0.308487	1.325217	0.079562	-0.261305	1.328270	0.114662	0.040376	1.453212	0.063688	-0.000243	1.397476	0.112944	0.000749	1.447649	0.084256	0.056523	1.405149	0.082897	-0.012488	1.464752	0.026527	0.033070	1.261896	0.067583	-0.212477	1.435243	0.034024	-0.007570	1.418508	0.103736
3859	38.590000	-0.076309	1.553432	-0.062741	-0.087564	1.316775	-0.149327	-0.300667	1.146725	0.075124	-0.252818	1.130827	0.028683	-0.092935	1.126294	0.251624	-0.071388	1.181689	0.235800	-0.243865	1.470650	0.034965	-0.151968	1.136952	0.238938	-0.109855	1.142382	0.273620	-0.108337	1.169535	0.266846	-0.147895	1.180079	0.226721	-0.266973	1.255099	0.130171	-0.310039	1.261228	0.088273	-0.307963	1.324614	0.080293	-0.260563	1.327593	0.115059	0.040466	1.453147	0.063588	-0.000049	1.397395	0.112914	0.000877	1.447584	0.084210	0.056658	1.405100	0.082736	-0.012466	1.464718	0.026529	0.033233	1.261851	0.067372	-0.212596	1.435063	0.034520	-0.007417	1.418432	0.103696
3860	38.600000	-0.076445	1.553449	-0.062554	-0.087738	1.316862	-0.149328	-0.299921	1.146145	0.074678	-0.252356	1.130591	0.027831	-0.089844	1.124455	0.248710	-0.068361	1.179891	0.232942	-0.243826	1.470518	0.035326	-0.149057	1.135451	0.236811	-0.106543	1.140646	0.271111	-0.105038	1.167858	0.264325	-0.145010	1.178683	0.224743	-0.265992	1.254243	0.130105	-0.309478	1.260464	0.088567	-0.307548	1.323983	0.080925	-0.259933	1.326834	0.115362	0.040540	1.453059	0.063500	0.000162	1.397288	0.112889	0.000991	1.447472	0.084158	0.056811	1.405024	0.082574	-0.012438	1.464682	0.026545	0.033398	1.261797	0.067146	-0.212707	1.434874	0.035010	-0.007250	1.418345	0.103609
3861	38.610000	-0.076570	1.553480	-0.062344	-0.087902	1.316978	-0.149342	-0.299151	1.145548	0.074114	-0.251811	1.130350	0.026922	-0.087106	1.122685	0.246022	-0.065675	1.178168	0.230351	-0.243781	1.470391	0.035690	-0.146491	1.134016	0.234823	-0.103635	1.139001	0.268623	-0.102122	1.166173	0.262018	-0.142498	1.177328	0.222790	-0.265077	1.253314	0.129927	-0.308964	1.259654	0.088694	-0.307127	1.323241	0.081434	-0.259213	1.325877	0.115549	0.040646	1.452970	0.063406	0.000388	1.397182	0.112886	0.001158	1.447320	0.084080	0.057001	1.404938	0.082427	-0.012404	1.464645	0.026573	0.033562	1.261736	0.066903	-0.212807	1.434681	0.035499	-0.007029	1.418143	0.103575
3862	38.620000	-0.076682	1.553524	-0.062118	-0.088057	1.317117	-0.149369	-0.298367	1.144946	0.073453	-0.251201	1.130114	0.025973	-0.084705	1.120997	0.243570	-0.063320	1.176537	0.228035	-0.243732	1.470269	0.036052	-0.144265	1.132622	0.232965	-0.101105	1.137384	0.266480	-0.099590	1.164591	0.259885	-0.140207	1.175886	0.221002	-0.264199	1.252380	0.129639	-0.307990	1.259022	0.088817	-0.306685	1.322482	0.081803	-0.258556	1.325011	0.115684	0.040695	1.452849	0.063316	0.000530	1.396928	0.112744	0.001303	1.447156	0.084067	0.057172	1.404838	0.082287	-0.012365	1.464610	0.026610	0.033722	1.261670	0.066647	-0.212900	1.434489	0.035985	-0.006861	1.418022	0.103543
3863	38.630000	-0.076792	1.553567	-0.061888	-0.088211	1.317256	-0.149394	-0.297590	1.144351	0.072727	-0.250553	1.129884	0.025007	-0.082628	1.119398	0.241355	-0.061279	1.174998	0.225987	-0.243684	1.470147	0.036411	-0.142268	1.131284	0.231190	-0.098935	1.135760	0.264465	-0.097432	1.163008	0.257930	-0.138273	1.174655	0.219467	-0.263340	1.251504	0.129320	-0.307297	1.258289	0.088636	-0.306230	1.321758	0.082040	-0.258124	1.324421	0.115790	0.041233	1.452921	0.063524	0.000720	1.396778	0.112708	0.001453	1.447135	0.084173	0.057326	1.404735	0.082176	-0.012328	1.464570	0.026652	0.033876	1.261599	0.066394	-0.212986	1.434300	0.036454	-0.006670	1.417859	0.103542
